<?xml version="1.0" encoding="UTF-8"?>
<svg id="Layer_2" data-name="Layer 2" xmlns="http://www.w3.org/2000/svg" viewBox="0 0 100.82 59.43">
  <defs>
    <style>
      .cls-1 {
        fill: #a88e58;
        stroke-width: 0px;
      }
    </style>
  </defs>
  <g id="Layer_1-2" data-name="Layer 1">
    <g>
      <path class="cls-1" d="m24.54,58.48c-.21-.23-.92-1-.92-1-.38.23-.86.59-.6,1.14.21.47,1.12.32,1.52-.14Zm-1.23-2.5c0,.14.05.27.12.39.08.14.19.27.33.4.13-.09.24-.17.33-.25.15-.15.29-.35.25-.58-.04-.23-.26-.38-.53-.37-.26,0-.49.17-.49.41m1.97,2.41l.92.99h-.79l-.49-.52c-.41.38-.91.6-1.52.56-.74-.06-1.03-.53-1.09-.89-.09-.56.15-.9.52-1.2.08-.07.31-.22.41-.28-.34-.39-.51-.66-.54-1.01-.02-.3.09-.54.29-.73.2-.19.46-.28.78-.28s.58.09.79.27c.21.18.32.42.32.7.01.49-.38.9-.77,1.13l.79.87c.17-.28.31-.65.37-.83h.54c-.04.23-.28.87-.55,1.22Zm52.46-1.37l-.48-.28c-.22-.13-.37-.25-.47-.36s-.15-.24-.15-.37c0-.15.07-.27.2-.37.13-.1.3-.14.51-.14.37,0,.71.15,1.02.46v-.71c-.31-.21-.64-.31-1.01-.31s-.7.11-.94.32c-.24.22-.36.5-.36.84,0,.23.06.44.19.61.13.18.34.36.64.54l.48.29c.39.24.58.49.58.76,0,.16-.07.3-.2.41-.13.11-.29.16-.49.16-.45,0-.84-.22-1.18-.65v.8c.36.27.75.4,1.19.4.38,0,.68-.11.92-.33.24-.22.35-.51.35-.86,0-.49-.27-.9-.8-1.22m-6.02-.81c0-.27-.15-.52-.42-.61-.13-.05-.35-.07-.66-.07h-.19v1.39h.24c.32,0,.54-.03.66-.08.25-.12.37-.36.38-.62Zm1.27,2.86l.23.31h-.76s-.2-.32-.22-.34l-.32-.49-.23-.34c-.13-.18-.25-.33-.36-.44-.11-.11-.19-.18-.28-.22-.09-.05-.25-.07-.45-.07h-.16v1.91h-.63v-4.39h1.11c.44,0,.8.11,1.06.33.26.22.39.52.39.89,0,.26-.06.48-.19.66-.13.19-.3.33-.54.42.14.09.28.22.41.38.13.16.32.44.56.83.15.25.28.44.37.56m-27.24-2.86c0-.27-.15-.52-.42-.61-.13-.05-.35-.07-.66-.07h-.19v1.39h.24c.32,0,.54-.03.66-.08.25-.12.37-.36.38-.62m1.27,2.86l.23.31h-.76s-.2-.32-.22-.34l-.32-.49-.23-.34c-.13-.18-.25-.33-.36-.44-.11-.11-.19-.18-.28-.22-.09-.05-.25-.07-.45-.07h-.16v1.91h-.63v-4.39h1.11c.44,0,.8.11,1.06.33.26.22.39.52.39.89,0,.26-.06.48-.19.66-.13.19-.3.33-.54.42.14.09.28.22.41.38.13.16.32.44.56.83.15.25.28.44.37.56m17.58-1.62h1.8v-.56h-1.8v-1.34h1.86v-.56h-2.49v4.39h2.55v-.56h-1.92v-1.36Zm-4.78.95l-2.99-3.41h-.51v4.39h.59v-3.38l2.96,3.38h.54v-4.39h-.6v3.41Zm-10.35-2.86h1.53v3.84h.63v-3.84h1.53v-.56h-3.69v.56h0Zm-10.15,1.98l-.71-1.59-.66,1.59h1.37Zm-.48-2.56l1.97,4.42h-.64l-.59-1.3h-1.87l-.55,1.3h-.65l1.89-4.42h.44Zm-5.13,1.25c0-.45-.28-.68-.84-.68h-.66v1.37h.7c.47,0,.8-.21.8-.7Zm.65.02c0,.26-.06.49-.19.69-.12.18-.31.34-.53.42-.27.1-.52.14-.96.13h-.48v1.91h-.63v-4.4h1.4c.42,0,.75.11,1,.34.25.23.37.53.37.91m34.92-9.64c.81.78,1.83,1.18,3.04,1.18s2.24-.4,3.06-1.2c.82-.8,1.23-1.8,1.23-2.99s-.41-2.14-1.23-2.93c-.82-.79-1.82-1.19-3.02-1.19-1.26,0-2.29.39-3.1,1.18-.81.79-1.21,1.79-1.21,3.01s.41,2.17,1.22,2.95m2.94,2.62c-1.65,0-3.03-.53-4.13-1.59-1.1-1.06-1.65-2.39-1.65-3.98s.55-2.99,1.66-4.07c1.11-1.07,2.51-1.61,4.21-1.61s3.11.54,4.23,1.61c1.13,1.07,1.69,2.42,1.69,4.04s-.57,2.96-1.71,4.02c-1.14,1.06-2.57,1.59-4.3,1.59Zm-13.4-7.1c.16-.27.25-.59.25-.94s-.09-.66-.27-.94c-.18-.28-.44-.48-.77-.59-.33-.11-.88-.17-1.65-.17h-.47v3.46h.6c.8,0,1.34-.07,1.64-.2.3-.14.53-.34.69-.62Zm3.41,6.21l.58.79h-1.89s-.5-.79-.55-.86l-.79-1.23-.59-.86c-.32-.45-.62-.82-.89-1.09-.27-.27-.48-.44-.7-.56-.22-.12-.61-.18-1.13-.18h-.41v4.77h-1.57v-10.97h2.78c1.11,0,1.99.28,2.64.82.65.55.98,1.29.98,2.23,0,.64-.16,1.19-.48,1.66-.32.47-.75.81-1.35,1.04.35.23.69.54,1.03.94.33.4.79,1.09,1.4,2.08.38.62.71,1.09.94,1.41m-18.04.79h1.58v-9.57h3.81v-1.4h-9.19v1.4h3.81v9.57Zm-18.23-4.65l-1.77-3.97-1.64,3.97h3.41,0Zm-1.2-6.38l4.92,11.03h-1.61l-1.46-3.25h-4.68l-1.37,3.25h-1.61l4.71-11.03h1.1Zm62.46,5.12l-1.25-.71c-.54-.32-.97-.65-1.21-.94-.24-.29-.32-.56-.32-.89,0-.37.16-.68.49-.92.33-.24.75-.36,1.26-.36.91,0,1.76.38,2.55,1.14v-1.78c-.76-.51-1.51-.77-2.52-.77-.96,0-1.76.26-2.36.8-.6.54-.9,1.24-.9,2.1,0,.58.18,1.12.53,1.56.34.42.81.88,1.56,1.34l1.19.73c.96.6,1.46,1.23,1.46,1.9,0,.41-.18.75-.5,1.03-.33.27-.74.39-1.23.39-1.12,0-2.1-.51-2.94-1.59v1.99c.91.69,1.88.99,2.96,1.01.94.02,1.7-.28,2.29-.83.59-.55.89-1.27.89-2.15,0-1.24-.62-2.25-1.96-3.05m-53.09,5.91h1.58v-10.97h-1.58v10.97Zm-21.78-3.41l-3.06-7.56h-1.49l-3.04,7.56-3.03-7.56H.13l4.44,11.07h.3l3.63-8.98,3.6,8.98h.31l4.45-11.07h-1.56l-2.99,7.56Zm88.37,2v1.42h-6.39v-10.97h6.24v1.41h-4.67v3.31h4.51v1.41h-4.51v3.41h4.81ZM0,30.71h100.82v1.58H0v-1.58Z"/>
      <path class="cls-1" d="m43.3,24.84h3.33s-.03-23.28-.03-23.28h-3.33s.03,23.28.03,23.28Z"/>
      <path class="cls-1" d="m32.61,6.62c-.49.52-1.12.78-1.88.78s-1.41-.25-1.9-.76c-.49-.5-.74-1.16-.74-1.95,0-.83.24-1.53.73-2.08.49-.55,1.1-.83,1.84-.83s1.41.26,1.91.79c.51.53.76,1.21.77,2.03,0,.82-.24,1.5-.73,2.02m1.38-5.31C33.09.44,31.92,0,30.49,0c-1.3,0-2.37.44-3.2,1.3-.83.86-1.25,1.97-1.25,3.31,0,1.34.45,2.45,1.33,3.34.88.89,1.98,1.34,3.29,1.34,1.34,0,2.45-.44,3.34-1.32.89-.88,1.33-1.97,1.33-3.29,0-1.38-.45-2.51-1.35-3.38"/>
      <path class="cls-1" d="m18.52,1.56l.03,18.07L2.83,1.58H.13s.03,23.27.03,23.27h3.13s-.02-17.93-.02-17.93l15.58,17.9h2.87s-.03-23.27-.03-23.27h-3.17Z"/>
    </g>
  </g>
</svg>