<?xml version="1.0" encoding="UTF-8"?>
<svg id="Layer_1" xmlns="http://www.w3.org/2000/svg" version="1.1" viewBox="0 0 59.21 59.21">
  <!-- Generator: Adobe Illustrator 29.1.0, SVG Export Plug-In . SVG Version: 2.1.0 Build 142)  -->
  <defs>
    <style>
      .st0 {
        fill: #fff;
      }

      .st1 {
        fill: #90d5e1;
      }

      .st2 {
        fill: #58595b;
      }
    </style>
  </defs>
  <path class="st2" d="M59.21,29.6c0,16.35-13.25,29.6-29.6,29.6S0,45.95,0,29.6,13.25,0,29.6,0s29.6,13.25,29.6,29.6"/>
  <path class="st0" d="M30.89,48.35s.13-4.66.25-7.8c.12-3.13,3.47-4.98,5.91-7.04,9.35-7.88,2.66-20.64,2.66-20.64h-10.11s-10.11,0-10.11,0c0,0-6.69,12.77,2.66,20.64,2.45,2.06,5.79,3.91,5.91,7.04.12,3.13.25,7.8.25,7.8,0,0-.28,3.49-2.77,3.81-3.12.41-10.23,2-7.41,2s11.46,0,11.46,0c0,0,8.66,0,11.46,0s-4.29-1.6-7.41-2c-2.48-.32-2.77-3.81-2.77-3.81"/>
  <path class="st1" d="M25.61,28.92c-7.18-6.22.62-12.87.62-12.87-3.59,7.15,0,9.65,2,10.34,3.96,1.11,1.71,6.29-2.62,2.53M35.95,18.21c-5.71-8.62-5.48-11.66-3.2-15.64,0,0-3.12,2.51-9.58,13.39-5.41,9.13.61,16.36,5.45,17.43,5.25,1.16,13.54-5.79,7.32-15.18"/>
</svg>