<?xml version="1.0" encoding="UTF-8"?><svg id="uuid-13bb92f7-bbde-4b83-941f-aca59d56ad8c" xmlns="http://www.w3.org/2000/svg" width="16.83" height="16.83" viewBox="0 0 16.83 16.83"><path d="M16.83,8.41c0,4.65-3.77,8.41-8.41,8.41S0,13.06,0,8.41,3.77,0,8.41,0s8.41,3.77,8.41,8.41" fill="#fff"/><path d="M8.78,13.74s.04-1.32.07-2.21c.03-.89.99-1.42,1.68-2,2.66-2.24.75-5.87.75-5.87h-2.87s-2.87,0-2.87,0c0,0-1.9,3.63.75,5.87.7.59,1.65,1.11,1.68,2,.03.89.07,2.21.07,2.21,0,0-.08.99-.79,1.08-.89.12-2.91.57-2.11.57s3.26,0,3.26,0c0,0,2.46,0,3.26,0s-1.22-.45-2.11-.57c-.71-.09-.79-1.08-.79-1.08" fill="#000005"/><path d="M7.28,8.22c-2.04-1.77.18-3.66.18-3.66-1.02,2.03,0,2.74.57,2.94,1.13.32.49,1.79-.74.72M10.21,5.18c-1.62-2.45-1.56-3.31-.91-4.44,0,0-.89.71-2.72,3.81-1.54,2.59.17,4.65,1.55,4.95,1.49.33,3.85-1.65,2.08-4.31" fill="#8fd5e0"/></svg>