<?xml version="1.0" encoding="UTF-8"?><svg id="uuid-6127001e-ef48-4ce3-8e62-2adbab76c005" xmlns="http://www.w3.org/2000/svg" width="18.48" height="18.75" viewBox="0 0 18.48 18.75"><polygon points="15.81 4.02 16.88 4.02 18.48 18.75 15.32 18.75 15.81 4.02" fill="#f9b718"/><polygon points="15.02 4.02 16.35 4.02 16.35 18.75 13.19 18.75 15.02 4.02" fill="#f68f1e"/><polygon points="1.73 4.02 15.71 4.02 14.47 18.75 0 18.75 1.73 4.02" fill="#f9b718"/><path d="M7.22,5.2h0c0-.1.03-1.18.34-2.14.15-.48.38-.93.65-1.21.14-.14.28-.25.44-.32.16-.07.35-.12.59-.12.24,0,.43.05.6.13.15.07.28.17.4.3.22.23.41.55.56.93.22.56.35,1.21.41,1.72.03.25.04.47.05.62v.17s0,.04,0,.04h0c0,.4.32.71.71.71s.7-.32.7-.7c0-.04,0-1.24-.37-2.51-.19-.64-.47-1.3-.96-1.86-.24-.27-.54-.52-.9-.69C10.1.1,9.68,0,9.24,0c-.44,0-.85.09-1.2.26-.62.29-1.06.79-1.37,1.32-.46.79-.66,1.68-.76,2.38-.1.7-.1,1.22-.1,1.24,0,.39.32.71.7.71s.71-.32.71-.71" fill="#231f20"/></svg>