<?xml version="1.0" encoding="UTF-8"?>
<svg id="Layer_1" xmlns="http://www.w3.org/2000/svg" version="1.1" viewBox="0 0 65.04 65.99">
  <!-- Generator: Adobe Illustrator 29.1.0, SVG Export Plug-In . SVG Version: 2.1.0 Build 142)  -->
  <defs>
    <style>
      .st0 {
        fill: #71be44;
      }

      .st1 {
        fill: #231f20;
      }

      .st2 {
        fill: #b8d433;
      }
    </style>
  </defs>
  <polygon class="st0" points="55.65 14.14 59.42 14.14 65.04 65.99 53.91 65.99 55.65 14.14"/>
  <polygon class="st0" points="52.84 14.14 57.54 14.14 57.54 65.99 46.4 65.99 52.84 14.14"/>
  <polygon class="st2" points="6.09 14.14 55.28 14.14 50.93 65.99 0 65.99 6.09 14.14"/>
  <path class="st1" d="M25.4,18.31v-.02c0-.34.09-4.12,1.2-7.51.54-1.7,1.34-3.26,2.3-4.26.48-.51.99-.88,1.57-1.14.58-.26,1.22-.42,2.06-.42.85,0,1.51.17,2.1.45.51.25.98.59,1.42,1.05.77.79,1.45,1.95,1.98,3.26.79,1.97,1.23,4.27,1.43,6.05.11.89.16,1.65.19,2.18.01.26.02.47.02.61v.15s0,.04,0,.04c0,1.37,1.11,2.48,2.48,2.48s2.48-1.11,2.48-2.48c0-.14.01-4.36-1.31-8.85-.67-2.24-1.67-4.59-3.38-6.53-.86-.96-1.91-1.82-3.16-2.43C35.53.34,34.08,0,32.53,0c-1.54,0-2.98.33-4.23.92-2.2,1.04-3.74,2.79-4.81,4.64-1.61,2.79-2.31,5.92-2.68,8.39-.36,2.47-.37,4.28-.37,4.37,0,1.37,1.11,2.48,2.48,2.48s2.48-1.11,2.48-2.48"/>
</svg>