<?xml version="1.0" encoding="UTF-8"?>
<svg id="Layer_1" xmlns="http://www.w3.org/2000/svg" version="1.1" viewBox="0 0 114.16 56.82">
  <!-- Generator: Adobe Illustrator 29.1.0, SVG Export Plug-In . SVG Version: 2.1.0 Build 142)  -->
  <defs>
    <style>
      .st0 {
        fill: #6b532a;
      }
    </style>
  </defs>
  <path class="st0" d="M26.92,17.29h-.02c-2,0-3.6,1.58-3.59,3.54l.06,12.14c0,1.96,1.64,3.56,3.65,3.57h.09s.03,0,.03,0l7.88.04,8.32,11.82c.5.71,1.31,1.1,2.14,1.1.5,0,1-.14,1.43-.43,1.16-.78,1.45-2.34.65-3.49l-9.09-12.91c-.3-.42-.72-.69-1.17-.87l-.11-.04c-.23-.08-.46-.13-.71-.14l-.23-.05-5.63-.03v-2.51s5.42.03,5.42.03h0c.94,0,1.69-.74,1.68-1.66v-.75c0-.92-.77-1.67-1.71-1.67l-5.43-.03-.02-4.08c-.01-1.96-1.64-3.56-3.65-3.57"/>
  <path class="st0" d="M22.09,23.86c-5.28,1.88-9.05,6.83-9.02,12.66.04,7.47,6.28,13.58,13.91,13.62h.07c4.73,0,8.89-2.35,11.35-5.91l-2.43-3.45c-1.58,3.3-4.98,5.6-8.95,5.6h-.05c-5.51-.03-10.02-4.44-10.05-9.84-.02-3.7,2.1-6.88,5.2-8.53l-.02-4.15Z"/>
  <path class="st0" d="M27.33,5.21c-2.22,0-4.02,2.16-4.02,4.83s1.8,4.83,4.02,4.83,4.02-2.16,4.02-4.83-1.8-4.83-4.02-4.83"/>
  <path class="st0" d="M55.82,55.82v-1,1h1-1ZM2,2h52.82v52.82H2V2ZM56.82,0H0v56.82h56.82V0"/>
  <path class="st0" d="M74.6,54.8h0s0,0,0,0Z"/>
  <polygon class="st0" points="78.09 2.58 74.6 2.58 71.11 2.58 71.11 31.29 78.09 31.29 78.09 2.58"/>
  <polygon class="st0" points="88.17 31.29 78.09 31.29 71.11 31.29 61.02 31.29 74.6 54.8 74.6 54.8 88.17 31.29"/>
  <path class="st0" d="M100.59,48.57h0ZM100.59,2.02h0s0,0,0,0"/>
  <polygon class="st0" points="104.08 25.53 97.1 25.53 97.1 48.57 100.59 48.57 104.08 48.57 104.08 25.53"/>
  <polygon class="st0" points="100.59 2.02 87.01 25.53 97.1 25.53 104.08 25.53 114.16 25.53 100.59 2.02 100.59 2.02"/>
</svg>